<?xml version="1.0" encoding="UTF-8"?>
<svg xmlns="http://www.w3.org/2000/svg" xmlns:xlink="http://www.w3.org/1999/xlink" width="60px" height="60px" viewBox="0 0 60 60" version="1.1">
<g id="surface1">
<path style=" stroke:none;fill-rule:nonzero;fill:rgb(0%,0%,0%);fill-opacity:1;" d="M 55 60 L 41.875 47.5 L 43.449219 52.5 L 11.25 52.5 C 7.796875 52.5 5 49.703125 5 46.25 L 5 8.75 C 5 5.296875 7.796875 2.5 11.25 2.5 L 48.75 2.5 C 52.203125 2.5 55 5.296875 55 8.75 L 55 60 M 30 17 C 23.300781 17 18.601562 19.875 18.601562 19.875 C 21.175781 17.574219 25.675781 16.25 25.675781 16.25 L 25.25 15.824219 C 21.023438 15.898438 17.199219 18.824219 17.199219 18.824219 C 12.898438 27.800781 13.175781 35.550781 13.175781 35.550781 C 16.675781 40.074219 21.875 39.75 21.875 39.75 L 23.648438 37.5 C 20.523438 36.824219 18.550781 34.050781 18.550781 34.050781 C 18.550781 34.050781 23.25 37.25 30 37.25 C 36.75 37.25 41.449219 34.050781 41.449219 34.050781 C 41.449219 34.050781 39.476562 36.824219 36.351562 37.5 L 38.125 39.75 C 38.125 39.75 43.324219 40.074219 46.824219 35.550781 C 46.824219 35.550781 47.101562 27.800781 42.800781 18.824219 C 42.800781 18.824219 38.976562 15.898438 34.75 15.824219 L 34.324219 16.25 C 34.324219 16.25 38.824219 17.574219 41.398438 19.875 C 41.398438 19.875 36.699219 17 30 17 M 24.824219 26.476562 C 26.449219 26.476562 27.773438 27.898438 27.75 29.648438 C 27.75 31.375 26.449219 32.824219 24.824219 32.824219 C 23.226562 32.824219 21.925781 31.375 21.925781 29.648438 C 21.925781 27.898438 23.199219 26.476562 24.824219 26.476562 M 35.25 26.476562 C 36.875 26.476562 38.175781 27.898438 38.175781 29.648438 C 38.175781 31.375 36.875 32.824219 35.25 32.824219 C 33.648438 32.824219 32.351562 31.375 32.351562 29.648438 C 32.351562 27.898438 33.625 26.476562 35.25 26.476562 Z M 35.25 26.476562 "/>
</g>
</svg>
